<svg width="79" height="32" viewBox="0 0 79 32" fill="none" xmlns="http://www.w3.org/2000/svg">
<path fill-rule="evenodd" clip-rule="evenodd" d="M49.2494 2.24942C47 4.49884 47 8.1192 47 15.36V16.64C47 23.8808 47 27.5011 49.2494 29.7506C51.4988 32 55.1192 32 62.36 32H63.64C70.8808 32 74.5011 32 76.7506 29.7506C79 27.5011 79 23.8808 79 16.64V15.36C79 8.1192 79 4.49884 76.7506 2.24942C74.5011 0 70.8808 0 63.64 0H62.36C55.1192 0 51.4988 0 49.2494 2.24942ZM52.4001 9.7334C52.5734 18.0534 56.7333 23.0534 64.0267 23.0534H64.4401V18.2934C67.1201 18.5601 69.1466 20.5201 69.9599 23.0534H73.7467C72.7067 19.2667 69.9733 17.1734 68.2666 16.3734C69.9733 15.3867 72.3733 12.9867 72.9466 9.7334H69.5065C68.7599 12.3734 66.5468 14.7734 64.4401 15.0001V9.7334H61V18.9601C58.8667 18.4267 56.1734 15.8401 56.0534 9.7334H52.4001Z" fill="#EFEFEF"/>
<path d="M16 0C7.16129 0 0 7.16129 0 16C0 24.8387 7.16129 32 16 32C24.8387 32 32 24.8387 32 16C32 7.16129 24.8387 0 16 0ZM23.8581 10.9613L21.2323 23.3355C21.0387 24.2129 20.5161 24.4258 19.7871 24.0129L15.7871 21.0645L13.8581 22.9226C13.6452 23.1355 13.4645 23.3161 13.0516 23.3161L13.3355 19.2452L20.7484 12.5484C21.071 12.2645 20.6774 12.1032 20.2516 12.3871L11.0903 18.1548L7.14193 16.9226C6.28387 16.6516 6.26452 16.0645 7.32258 15.6516L22.7484 9.70323C23.4645 9.44516 24.0903 9.87742 23.8581 10.9613Z" fill="#EFEFEF"/>
</svg>
